<?xml version="1.0" encoding="utf-8"?>
<!-- Generator: Adobe Illustrator 14.0.0, SVG Export Plug-In . SVG Version: 6.00 Build 43363)  -->
<!DOCTYPE svg PUBLIC "-//W3C//DTD SVG 1.1//EN" "http://www.w3.org/Graphics/SVG/1.1/DTD/svg11.dtd">
<svg version="1.1" xmlns="http://www.w3.org/2000/svg" xmlns:xlink="http://www.w3.org/1999/xlink" x="0px" y="0px" width="612px"
	 height="792px" viewBox="0 0 612 792" enable-background="new 0 0 612 792" xml:space="preserve">
<g id="Layer_1">
	<path fill="#FFFFFF" d="M526.355,357.897c-1.551-2.031-3.557-3.24-6.086-3.624l-53.028-8.113
		c-2.899-9.272-6.861-18.737-11.884-28.398c3.475-4.83,8.689-11.638,15.643-20.43c6.954-8.792,11.88-15.213,14.779-19.271
		c1.547-2.127,2.315-4.347,2.315-6.666c0-2.703-0.673-4.827-2.027-6.374c-6.954-9.856-22.892-26.274-47.814-49.266
		c-2.313-1.931-4.73-2.895-7.238-2.895c-2.899,0-5.218,0.868-6.957,2.604l-41.146,31.008c-7.925-4.058-16.618-7.633-26.083-10.742
		l-8.112-53.317c-0.192-2.511-1.306-4.588-3.333-6.231c-2.031-1.643-4.393-2.461-7.104-2.461h-64.343
		c-5.602,0-9.081,2.703-10.432,8.113c-2.511,9.657-5.314,27.623-8.405,53.886c-9.081,2.903-17.855,6.573-26.37,11.016l-39.99-31.008
		c-2.511-1.931-5.022-2.895-7.533-2.895c-4.25,0-13.377,6.903-27.384,20.718s-23.518,24.197-28.561,31.151
		c-1.739,2.511-2.607,4.734-2.607,6.666c0,2.319,0.964,4.638,2.896,6.954c12.943,15.65,23.279,28.978,31.008,39.993
		c-4.83,8.885-8.597,17.774-11.3,26.659l-53.886,8.113c-2.124,0.388-3.959,1.643-5.506,3.77c-1.547,2.124-2.319,4.347-2.319,6.662
		v64.343c0,2.515,0.772,4.78,2.319,6.808c1.547,2.031,3.557,3.244,6.085,3.628l53.033,7.825c2.703,9.465,6.662,19.025,11.879,28.668
		c-3.475,4.83-8.693,11.638-15.646,20.431c-6.954,8.792-11.883,15.212-14.778,19.271c-1.547,2.131-2.319,4.347-2.319,6.666
		c0,2.511,0.676,4.73,2.027,6.661c7.534,10.437,23.472,26.666,47.814,48.687c2.127,2.127,4.542,3.187,7.246,3.187
		c2.899,0,5.314-0.868,7.245-2.604l40.861-31.012c7.925,4.058,16.618,7.633,26.083,10.741l8.113,53.317
		c0.196,2.511,1.306,4.588,3.333,6.231c2.027,1.646,4.396,2.461,7.1,2.461h64.343c5.609,0,9.084-2.703,10.439-8.113
		c2.508-9.66,5.307-27.622,8.397-53.886c9.081-2.898,17.891-6.573,26.37-11.016l39.993,31.301c2.703,1.735,5.218,2.604,7.533,2.604
		c4.247,0,13.328-6.854,27.235-20.573c13.914-13.715,23.475-24.15,28.668-31.3c1.739-1.932,2.61-4.151,2.61-6.662
		s-0.964-4.934-2.898-7.245c-13.907-17.002-24.243-30.329-31.009-39.989c3.863-7.149,7.633-15.938,11.304-26.371l53.602-8.109
		c2.315-0.388,4.254-1.646,5.798-3.773c1.543-2.127,2.312-4.351,2.312-6.666v-64.343c0-2.511-0.765-4.777-2.315-6.808
		 M358.548,448.721c-14.487,14.49-31.973,21.736-52.453,21.736c-20.48,0-37.962-7.246-52.453-21.736
		c-14.487-14.486-21.732-31.969-21.732-52.449c0-20.48,7.242-37.962,21.732-52.453c14.491-14.487,31.976-21.732,52.453-21.732
		c20.48,0,37.966,7.245,52.453,21.732c14.486,14.49,21.731,31.972,21.731,52.453C380.279,416.752,373.034,434.234,358.548,448.721"
		/>
</g>
<g id="Layer_2" display="none">
	<g display="inline">
		<path fill="#0000FF" d="M307.907,470.32c-20.479-0.001-37.96-7.246-52.451-21.736c-14.487-14.486-21.732-31.969-21.732-52.449
			s7.242-37.962,21.732-52.452c14.49-14.487,31.975-21.731,52.451-21.732V173.584h-32.155c-5.602,0-9.081,2.703-10.432,8.113
			c-2.511,9.657-5.314,27.623-8.405,53.886c-9.081,2.903-17.855,6.573-26.37,11.016l-39.99-31.008
			c-2.511-1.931-5.022-2.895-7.533-2.895c-4.25,0-13.377,6.903-27.384,20.718s-23.518,24.197-28.561,31.151
			c-1.739,2.511-2.607,4.734-2.607,6.666c0,2.319,0.964,4.638,2.896,6.954c12.943,15.65,23.279,28.978,31.008,39.992
			c-4.83,8.886-8.597,17.774-11.3,26.659l-53.886,8.113c-2.124,0.388-3.959,1.644-5.506,3.771c-1.547,2.123-2.319,4.346-2.319,6.662
			v64.343c0,2.515,0.772,4.78,2.319,6.808c1.547,2.031,3.557,3.244,6.085,3.628l53.033,7.825
			c2.703,9.465,6.662,19.025,11.879,28.668c-3.475,4.83-8.693,11.638-15.646,20.431c-6.954,8.792-11.883,15.212-14.778,19.271
			c-1.547,2.131-2.319,4.347-2.319,6.666c0,2.511,0.676,4.73,2.027,6.661c7.534,10.437,23.472,26.666,47.814,48.687
			c2.127,2.127,4.542,3.187,7.246,3.187c2.899,0,5.314-0.868,7.245-2.604l40.861-31.012c7.925,4.058,16.618,7.633,26.083,10.741
			l8.113,53.317c0.196,2.511,1.306,4.588,3.333,6.231c2.027,1.646,4.396,2.461,7.1,2.461h32.151V470.32z"/>
		<path fill="#000080" d="M307.907,321.953c20.479,0.001,37.96,7.246,52.45,21.736c14.487,14.486,21.732,31.969,21.732,52.449
			s-7.242,37.962-21.732,52.452c-14.49,14.487-31.975,21.731-52.45,21.732v148.366h32.155c5.602,0,9.08-2.703,10.432-8.113
			c2.512-9.656,5.314-27.623,8.405-53.886c9.081-2.903,17.855-6.573,26.37-11.016l39.989,31.009
			c2.512,1.931,5.022,2.895,7.533,2.895c4.251,0,13.378-6.903,27.385-20.719c14.007-13.814,23.518-24.197,28.561-31.15
			c1.739-2.511,2.607-4.734,2.607-6.666c0-2.318-0.964-4.638-2.896-6.953c-12.943-15.65-23.279-28.978-31.008-39.992
			c4.83-8.886,8.597-17.774,11.3-26.659l53.886-8.113c2.124-0.388,3.959-1.644,5.506-3.771c1.548-2.123,2.319-4.346,2.319-6.662
			V364.55c0-2.515-0.771-4.78-2.319-6.808c-1.547-2.031-3.557-3.244-6.085-3.628l-53.033-7.825
			c-2.703-9.465-6.661-19.025-11.879-28.668c3.475-4.83,8.692-11.638,15.646-20.431c6.953-8.792,11.883-15.212,14.778-19.271
			c1.547-2.131,2.319-4.347,2.319-6.666c0-2.511-0.676-4.73-2.027-6.661c-7.534-10.437-23.472-26.666-47.814-48.687
			c-2.128-2.127-4.543-3.187-7.246-3.187c-2.898,0-5.313,0.868-7.245,2.604l-40.86,31.012c-7.925-4.058-16.618-7.633-26.083-10.741
			l-8.112-53.317c-0.196-2.511-1.306-4.588-3.333-6.231c-2.027-1.646-4.396-2.461-7.1-2.461h-32.151V321.953z"/>
	</g>
	<rect x="306.093" y="344.243" display="inline" fill="#FFFFFF" width="252.74" height="103.513"/>
	<path display="inline" fill="#FFFFFF" d="M307.907,251.137c-80.082,0-145,64.919-145,145c0,80.082,64.919,145,145,145
		c80.082,0,145-64.918,145-145C452.907,316.056,387.989,251.137,307.907,251.137z M307.907,519.637
		c-68.208,0-123.5-55.292-123.5-123.5c0-68.207,55.293-123.5,123.5-123.5c68.207,0,123.5,55.293,123.5,123.5
		C431.407,464.345,376.114,519.637,307.907,519.637z"/>
</g>
<g id="Layer_3" display="none">
	<g display="inline">
		<path fill="#0000FF" d="M304.777,470.184c-20.479-0.001-37.96-7.246-52.451-21.736c-14.487-14.486-21.732-31.969-21.732-52.449
			s7.242-37.962,21.732-52.452c14.49-14.487,31.975-21.731,52.451-21.732V173.447h-32.155c-5.602,0-9.081,2.703-10.432,8.113
			c-2.511,9.657-5.314,27.623-8.405,53.886c-9.081,2.903-17.855,6.573-26.37,11.016l-39.99-31.008
			c-2.511-1.931-5.022-2.895-7.533-2.895c-4.25,0-13.377,6.903-27.384,20.718s-23.518,24.197-28.561,31.151
			c-1.739,2.511-2.607,4.734-2.607,6.666c0,2.319,0.964,4.638,2.896,6.954c12.943,15.65,23.279,28.978,31.008,39.992
			c-4.83,8.886-8.597,17.774-11.3,26.659l-53.886,8.113c-2.124,0.388-3.959,1.644-5.506,3.771c-1.547,2.123-2.319,4.346-2.319,6.662
			v64.343c0,2.515,0.772,4.78,2.319,6.808c1.547,2.031,3.557,3.244,6.085,3.628l53.033,7.825
			c2.703,9.465,6.662,19.025,11.879,28.668c-3.475,4.83-8.693,11.638-15.646,20.431c-6.954,8.792-11.883,15.212-14.778,19.271
			c-1.547,2.131-2.319,4.347-2.319,6.666c0,2.511,0.676,4.73,2.027,6.661c7.534,10.437,23.472,26.666,47.814,48.687
			c2.127,2.127,4.542,3.187,7.246,3.187c2.899,0,5.314-0.868,7.245-2.604l40.861-31.012c7.925,4.058,16.618,7.633,26.083,10.741
			l8.113,53.317c0.196,2.511,1.306,4.588,3.333,6.231c2.027,1.646,4.396,2.461,7.1,2.461h32.151V470.184z"/>
		<g>
			<path fill="#000080" d="M454.312,473.961c4.83-8.886,8.597-17.774,11.3-26.659l0.223-0.979H359.266
				c-0.667,0.715-1.337,1.43-2.038,2.131c-14.49,14.487-31.975,21.731-52.451,21.732v148.366h32.156
				c5.602,0,9.08-2.703,10.432-8.113c2.512-9.656,5.314-27.623,8.405-53.886c9.081-2.903,17.855-6.573,26.37-11.016l39.989,31.009
				c2.512,1.931,5.022,2.895,7.533,2.895c4.251,0,13.378-6.903,27.385-20.719c14.007-13.814,23.518-24.197,28.561-31.15
				c1.739-2.511,2.607-4.734,2.607-6.666c0-2.318-0.964-4.638-2.896-6.953C472.376,498.303,462.04,484.976,454.312,473.961z"/>
			<path fill="#000080" d="M359.782,346.224h106.586l-0.483-0.071c-2.703-9.465-6.661-19.025-11.879-28.668
				c3.475-4.83,8.692-11.638,15.646-20.431c6.953-8.792,11.883-15.212,14.778-19.271c1.547-2.131,2.319-4.347,2.319-6.666
				c0-2.511-0.676-4.73-2.027-6.661c-7.534-10.437-23.472-26.666-47.814-48.687c-2.128-2.127-4.543-3.187-7.246-3.187
				c-2.898,0-5.313,0.868-7.245,2.604l-40.86,31.012c-7.925-4.058-16.618-7.633-26.083-10.741l-8.112-53.317
				c-0.196-2.511-1.306-4.588-3.333-6.231c-2.027-1.646-4.396-2.461-7.1-2.461h-32.152v148.369
				c20.48,0.001,37.96,7.246,52.451,21.736C358.106,344.432,358.956,345.323,359.782,346.224z"/>
		</g>
	</g>
	<path display="inline" fill="#FFFFFF" d="M304.777,251c-80.081,0-145,64.919-145,145c0,80.082,64.919,145,145,145
		c80.082,0,145-64.918,145-145C449.776,315.919,384.858,251,304.777,251z M304.777,526c-71.796,0-130-58.201-130-130
		c0-71.797,58.204-130,130-130c71.797,0,130,58.203,130,130C434.776,467.799,376.574,526,304.777,526z"/>
</g>
</svg>
